<svg id="Р РЋР В»Р С•Р в„–_1" data-name="Р РЋР В»Р С•Р в„– 1" xmlns="http://www.w3.org/2000/svg" xmlns:xlink="http://www.w3.org/1999/xlink" viewBox="0 0 30 30"><defs><style>.cls-1{fill:url(#Р вЂР ВµР В·РЎвЂ№Р СРЎРЏР Р…Р Р…РЎвЂ№Р в„–_Р С–РЎР‚Р В°Р Т‘Р С‘Р ВµР Р…РЎвЂљ_52);}.cls-2{clip-path:url(#clip-path);}.cls-3,.cls-4{stroke:#999;}.cls-3,.cls-4,.cls-5{stroke-miterlimit:10;}.cls-3{fill:url(#Р вЂР ВµР В·РЎвЂ№Р СРЎРЏР Р…Р Р…РЎвЂ№Р в„–_Р С–РЎР‚Р В°Р Т‘Р С‘Р ВµР Р…РЎвЂљ_81);}.cls-4{fill:#333323;}.cls-5{fill:none;stroke:#d55853;stroke-width:2px;}.cls-6{fill:#d55853;}</style><radialGradient id="Р вЂР ВµР В·РЎвЂ№Р СРЎРЏР Р…Р Р…РЎвЂ№Р в„–_Р С–РЎР‚Р В°Р Т‘Р С‘Р ВµР Р…РЎвЂљ_52" cx="-84.35" cy="-52.26" r="19.79" gradientUnits="userSpaceOnUse"><stop offset="0" stop-color="#516373"/><stop offset="1" stop-color="#404f5c"/></radialGradient><clipPath id="clip-path"><polygon id="_Р С›Р В±РЎвЂљРЎР‚Р В°Р Р†Р С•РЎвЂЎР Р…РЎвЂ№Р в„–_Р С”Р С•Р Р…РЎвЂљРЎС“РЎР‚_" data-name="&lt;Р С›Р В±РЎвЂљРЎР‚Р В°Р Р†Р С•РЎвЂЎР Р…РЎвЂ№Р в„– Р С”Р С•Р Р…РЎвЂљРЎС“РЎР‚&gt;" class="cls-1" points="-64.4 -59.73 -84.69 -59.73 -84.69 -71.88 -104.31 -52.26 -84.69 -32.64 -84.69 -43.71 -64.4 -43.71 -64.4 -59.73"/></clipPath><linearGradient id="Р вЂР ВµР В·РЎвЂ№Р СРЎРЏР Р…Р Р…РЎвЂ№Р в„–_Р С–РЎР‚Р В°Р Т‘Р С‘Р ВµР Р…РЎвЂљ_81" x1="41.51" y1="-4.45" x2="41.51" y2="25" gradientUnits="userSpaceOnUse"><stop offset="0" stop-color="#fff"/><stop offset="0.09" stop-color="#f3f2f3"/><stop offset="0.28" stop-color="#dedede"/><stop offset="0.47" stop-color="#d2d1d2"/><stop offset="0.65" stop-color="#cecdce"/><stop offset="0.78" stop-color="#d1d0d1"/><stop offset="0.86" stop-color="#d9d9d9"/><stop offset="0.93" stop-color="#e8e8e8"/><stop offset="0.99" stop-color="#fdfdfd"/><stop offset="1" stop-color="#fff"/></linearGradient></defs><title>icon</title><polygon id="_Р С›Р В±РЎвЂљРЎР‚Р В°Р Р†Р С•РЎвЂЎР Р…РЎвЂ№Р в„–_Р С”Р С•Р Р…РЎвЂљРЎС“РЎР‚_2" data-name="&lt;Р С›Р В±РЎвЂљРЎР‚Р В°Р Р†Р С•РЎвЂЎР Р…РЎвЂ№Р в„– Р С”Р С•Р Р…РЎвЂљРЎС“РЎР‚&gt;" class="cls-1" points="-64.4 -59.73 -84.69 -59.73 -84.69 -71.88 -104.31 -52.26 -84.69 -32.64 -84.69 -43.71 -64.4 -43.71 -64.4 -59.73"/><g class="cls-2"><circle class="cls-3" cx="41.51" cy="10.15" r="14.82"/><circle class="cls-4" cx="31.77" cy="-18.1" r="25"/></g><circle class="cls-5" cx="15" cy="15" r="14"/><polygon class="cls-6" points="19.1 14.19 15.76 14.19 15.76 10.9 16.91 5.06 15.76 5.06 14.13 5.06 12.97 5.06 14.13 10.9 14.13 14.19 10.9 14.19 5.06 13.03 5.06 14.19 5.06 15.81 5.06 16.97 10.9 15.81 14.13 15.81 14.13 19.1 12.97 24.94 14.13 24.94 15.76 24.94 16.91 24.94 15.76 19.1 15.76 15.81 19.1 15.81 24.94 16.97 24.94 15.81 24.94 14.19 24.94 13.03 19.1 14.19"/></svg>